<svg width="24" height="18" viewBox="0 0 24 18" fill="none" xmlns="http://www.w3.org/2000/svg">
<path d="M23.543 13.7717L22.2528 4.835C21.9214 2.53666 19.921 0.833328 17.5656 0.833328H6.84175C4.4863 0.833328 2.48594 2.53666 2.15452 4.835L0.864342 13.7717C0.60394 15.5683 2.01248 17.1667 3.84713 17.1667C4.65201 17.1667 5.40954 16.8517 5.97769 16.2917L8.65273 13.6667H15.7546L18.4178 16.2917C18.9859 16.8517 19.7553 17.1667 20.5484 17.1667C22.3948 17.1667 23.8034 15.5683 23.543 13.7717ZM11.02 7.83333H8.65273V10.1667H7.46908V7.83333H5.10179V6.66666H7.46908V4.33333H8.65273V6.66666H11.02V7.83333ZM15.7546 6.66666C15.1036 6.66666 14.571 6.14166 14.571 5.5C14.571 4.85833 15.1036 4.33333 15.7546 4.33333C16.4056 4.33333 16.9382 4.85833 16.9382 5.5C16.9382 6.14166 16.4056 6.66666 15.7546 6.66666ZM18.1219 10.1667C17.4709 10.1667 16.9382 9.64166 16.9382 9C16.9382 8.35833 17.4709 7.83333 18.1219 7.83333C18.7729 7.83333 19.3055 8.35833 19.3055 9C19.3055 9.64166 18.7729 10.1667 18.1219 10.1667Z" fill="#2A7AE4"/>
</svg>
